{
  "accessors": [
    {
      "bufferView": 2,
      "componentType": 5126,
      "count": 856,
      "max": [
        0.78123021125793457,
        0.018652454018592834,
        0.84630465507507324
      ],
      "min": [
        -0.78120017051696777,
        -0.53598779439926147,
        -0.019025454297661781
      ],
      "type": "VEC3"
    },
    {
      "bufferView": 2,
      "byteOffset": 10272,
      "componentType": 5126,
      "count": 856,
      "max": [
        0.89622247219085693,
        0.98875832557678223,
        0.97928434610366821
      ],
      "min": [
        -0.68271607160568237,
        -0.99464172124862671,
        -0.94321012496948242
      ],
      "type": "VEC3"
    },
    {
      "bufferView": 1,
      "componentType": 5126,
      "count": 856,
      "max": [
        1,
        1
      ],
      "min": [
        0,
        0
      ],
      "type": "VEC2"
    },
    {
      "bufferView": 0,
      "componentType": 5125,
      "count": 1590,
      "max": [
        855
      ],
      "min": [
        0
      ],
      "type": "SCALAR"
    },
    {
      "bufferView": 2,
      "byteOffset": 20544,
      "componentType": 5126,
      "count": 800,
      "max": [
        0.78146016597747803,
        0.01842246949672699,
        0.84558463096618652
      ],
      "min": [
        -0.7814401388168335,
        -0.53544777631759644,
        -0.018795469775795937
      ],
      "type": "VEC3"
    },
    {
      "bufferView": 2,
      "byteOffset": 30144,
      "componentType": 5126,
      "count": 800,
      "max": [
        0.99999696016311646,
        0.99148321151733398,
        0.99969667196273804
      ],
      "min": [
        -0.99999994039535522,
        -0.92130142450332642,
        -0.99875998497009277
      ],
      "type": "VEC3"
    },
    {
      "bufferView": 1,
      "byteOffset": 6848,
      "componentType": 5126,
      "count": 800,
      "max": [
        1,
        1
      ],
      "min": [
        0,
        0
      ],
      "type": "VEC2"
    },
    {
      "bufferView": 0,
      "byteOffset": 6360,
      "componentType": 5125,
      "count": 1272,
      "max": [
        799
      ],
      "min": [
        0
      ],
      "type": "SCALAR"
    },
    {
      "bufferView": 2,
      "byteOffset": 39744,
      "componentType": 5126,
      "count": 4,
      "max": [
        0.72837018966674805,
        -0.0652475506067276,
        0.7989346981048584
      ],
      "min": [
        -0.72889018058776855,
        -0.49886775016784668,
        0.077264539897441864
      ],
      "type": "VEC3"
    },
    {
      "bufferView": 2,
      "byteOffset": 39792,
      "componentType": 5126,
      "count": 4,
      "max": [
        0,
        0.85716897249221802,
        0.51503551006317139
      ],
      "min": [
        0,
        0.85716885328292847,
        0.51503545045852661
      ],
      "type": "VEC3"
    },
    {
      "bufferView": 1,
      "byteOffset": 13248,
      "componentType": 5126,
      "count": 4,
      "max": [
        1,
        1
      ],
      "min": [
        0,
        -5.9604644775390625e-08
      ],
      "type": "VEC2"
    },
    {
      "bufferView": 0,
      "byteOffset": 11448,
      "componentType": 5125,
      "count": 6,
      "max": [
        3
      ],
      "min": [
        0
      ],
      "type": "SCALAR"
    },
    {
      "bufferView": 2,
      "byteOffset": 39840,
      "componentType": 5126,
      "count": 406,
      "max": [
        0.63927590847015381,
        -0.11807819455862045,
        0.200346440076828
      ],
      "min": [
        0.22782513499259949,
        -0.1528453528881073,
        0.14303773641586304
      ],
      "type": "VEC3"
    },
    {
      "bufferView": 2,
      "byteOffset": 44712,
      "componentType": 5126,
      "count": 406,
      "max": [
        0.0038080106023699045,
        -0.85329443216323853,
        -0.5181659460067749
      ],
      "min": [
        -0.0062135742045938969,
        -0.85527205467224121,
        -0.52141833305358887
      ],
      "type": "VEC3"
    },
    {
      "bufferView": 1,
      "byteOffset": 13280,
      "componentType": 5126,
      "count": 406,
      "max": [
        1,
        1
      ],
      "min": [
        0,
        0
      ],
      "type": "VEC2"
    },
    {
      "bufferView": 0,
      "byteOffset": 11472,
      "componentType": 5125,
      "count": 1176,
      "max": [
        405
      ],
      "min": [
        0
      ],
      "type": "SCALAR"
    },
    {
      "bufferView": 2,
      "byteOffset": 49584,
      "componentType": 5126,
      "count": 2189,
      "max": [
        0.78125017881393433,
        0.50729519128799438,
        0.017776003107428551
      ],
      "min": [
        -0.78125017881393433,
        -0.49920523166656494,
        -0.024620000272989273
      ],
      "type": "VEC3"
    },
    {
      "bufferView": 2,
      "byteOffset": 75852,
      "componentType": 5126,
      "count": 2189,
      "max": [
        0.95122838020324707,
        0.95761072635650635,
        1
      ],
      "min": [
        -0.99260443449020386,
        -0.99145197868347168,
        -0.9999881386756897
      ],
      "type": "VEC3"
    },
    {
      "bufferView": 1,
      "byteOffset": 16528,
      "componentType": 5126,
      "count": 2189,
      "max": [
        1,
        1
      ],
      "min": [
        0,
        0
      ],
      "type": "VEC2"
    },
    {
      "bufferView": 0,
      "byteOffset": 16176,
      "componentType": 5125,
      "count": 4065,
      "max": [
        2188
      ],
      "min": [
        0
      ],
      "type": "SCALAR"
    },
    {
      "bufferView": 2,
      "byteOffset": 102120,
      "componentType": 5126,
      "count": 3947,
      "max": [
        0.7819901704788208,
        0.50697505474090576,
        0.024620002135634422
      ],
      "min": [
        -0.7819901704788208,
        -0.50729525089263916,
        -0.023809999227523804
      ],
      "type": "VEC3"
    },
    {
      "bufferView": 2,
      "byteOffset": 149484,
      "componentType": 5126,
      "count": 3947,
      "max": [
        0.99999767541885376,
        1,
        0.99999898672103882
      ],
      "min": [
        -0.99999988079071045,
        -0.99999970197677612,
        -0.98083788156509399
      ],
      "type": "VEC3"
    },
    {
      "bufferView": 1,
      "byteOffset": 34040,
      "componentType": 5126,
      "count": 3947,
      "max": [
        1,
        1
      ],
      "min": [
        0,
        0
      ],
      "type": "VEC2"
    },
    {
      "bufferView": 0,
      "byteOffset": 32436,
      "componentType": 5125,
      "count": 6870,
      "max": [
        3946
      ],
      "min": [
        0
      ],
      "type": "SCALAR"
    },
    {
      "bufferView": 2,
      "byteOffset": 196848,
      "componentType": 5126,
      "count": 841,
      "max": [
        0.7817801833152771,
        -0.19819515943527222,
        0.0072300322353839874
      ],
      "min": [
        -0.7817801833152771,
        -0.44326519966125488,
        -0.015059997327625751
      ],
      "type": "VEC3"
    },
    {
      "bufferView": 2,
      "byteOffset": 206940,
      "componentType": 5126,
      "count": 841,
      "max": [
        1,
        1,
        1
      ],
      "min": [
        -1,
        -1,
        -1
      ],
      "type": "VEC3"
    },
    {
      "bufferView": 1,
      "byteOffset": 65616,
      "componentType": 5126,
      "count": 841,
      "max": [
        1,
        1
      ],
      "min": [
        0,
        0
      ],
      "type": "VEC2"
    },
    {
      "bufferView": 0,
      "byteOffset": 59916,
      "componentType": 5125,
      "count": 1629,
      "max": [
        840
      ],
      "min": [
        0
      ],
      "type": "SCALAR"
    },
    {
      "bufferView": 2,
      "byteOffset": 217032,
      "componentType": 5126,
      "count": 11,
      "max": [
        0.20913004875183105,
        0.45042496919631958,
        0.015940112993121147
      ],
      "min": [
        -0.20912006497383118,
        0.13349491357803345,
        0.01580011285841465
      ],
      "type": "VEC3"
    },
    {
      "bufferView": 2,
      "byteOffset": 217164,
      "componentType": 5126,
      "count": 11,
      "max": [
        0.0021067860070616007,
        0.0049805454909801483,
        0.99999380111694336
      ],
      "min": [
        -0.063971780240535736,
        -0.75184488296508789,
        0.65889656543731689
      ],
      "type": "VEC3"
    },
    {
      "bufferView": 1,
      "byteOffset": 72344,
      "componentType": 5126,
      "count": 11,
      "max": [
        1,
        1
      ],
      "min": [
        0,
        0
      ],
      "type": "VEC2"
    },
    {
      "bufferView": 0,
      "byteOffset": 66432,
      "componentType": 5125,
      "count": 15,
      "max": [
        10
      ],
      "min": [
        0
      ],
      "type": "SCALAR"
    },
    {
      "bufferView": 2,
      "byteOffset": 217296,
      "componentType": 5126,
      "count": 2674,
      "max": [
        0.67213720083236694,
        0.079804927110671997,
        0.018370071426033974
      ],
      "min": [
        -0.6723601222038269,
        -0.43736523389816284,
        0.018370004370808601
      ],
      "type": "VEC3"
    },
    {
      "bufferView": 2,
      "byteOffset": 249384,
      "componentType": 5126,
      "count": 2674,
      "max": [
        3.0494502425426617e-06,
        0.00018856584210880101,
        1
      ],
      "min": [
        -0.00044073985191062093,
        -3.4447443795215804e-06,
        0.99999994039535522
      ],
      "type": "VEC3"
    },
    {
      "bufferView": 1,
      "byteOffset": 72432,
      "componentType": 5126,
      "count": 2674,
      "max": [
        1,
        1
      ],
      "min": [
        0,
        0
      ],
      "type": "VEC2"
    },
    {
      "bufferView": 0,
      "byteOffset": 66492,
      "componentType": 5125,
      "count": 6444,
      "max": [
        2673
      ],
      "min": [
        0
      ],
      "type": "SCALAR"
    },
    {
      "bufferView": 2,
      "byteOffset": 281472,
      "componentType": 5126,
      "count": 1662,
      "max": [
        0.69409483671188354,
        0.089370071887969971,
        0.018010066822171211
      ],
      "min": [
        -0.68582475185394287,
        -0.43804335594177246,
        0.012950005009770393
      ],
      "type": "VEC3"
    },
    {
      "bufferView": 2,
      "byteOffset": 301416,
      "componentType": 5126,
      "count": 1662,
      "max": [
        0.99971741437911987,
        0.9999549388885498,
        1
      ],
      "min": [
        -0.99971741437911987,
        -0.99995201826095581,
        0.0094953132793307304
      ],
      "type": "VEC3"
    },
    {
      "bufferView": 1,
      "byteOffset": 93824,
      "componentType": 5126,
      "count": 1662,
      "max": [
        1,
        1
      ],
      "min": [
        0,
        0
      ],
      "type": "VEC2"
    },
    {
      "bufferView": 0,
      "byteOffset": 92268,
      "componentType": 5125,
      "count": 2472,
      "max": [
        1661
      ],
      "min": [
        0
      ],
      "type": "SCALAR"
    },
    {
      "bufferView": 3,
      "componentType": 5126,
      "count": 398,
      "max": [
        10.416666984558105
      ],
      "min": [
        0.041666667908430099
      ],
      "type": "SCALAR"
    },
    {
      "bufferView": 4,
      "componentType": 5126,
      "count": 398,
      "max": [
        0.99997407197952271,
        1.365431139957121e-16,
        1.9327022072742288e-16,
        0.70710670948028564
      ],
      "min": [
        -0.86263704299926758,
        -1.4557253815300215e-18,
        -1.9329424205241142e-16,
        -0.49867492914199829
      ],
      "type": "VEC4"
    }
  ],
  "animations": [
    {
      "channels": [
        {
          "sampler": 0,
          "target": {
            "node": 5,
            "path": "rotation"
          }
        }
      ],
      "name": "Scene",
      "samplers": [
        {
          "input": 40,
          "interpolation": "LINEAR",
          "output": 41
        }
      ]
    }
  ],
  "asset": {
    "extras": {
      "author": "OneSteven (https://sketchfab.com/Steven007)",
      "license": "CC-BY-NC-SA-4.0 (http://creativecommons.org/licenses/by-nc-sa/4.0/)",
      "source": "https://sketchfab.com/3d-models/samsung-ativ-book-9-5e5725666200416cbf650ddce1f84eb4",
      "title": "Samsung Ativ Book 9"
    },
    "generator": "Sketchfab-8.47.0",
    "version": "2.0"
  },
  "bufferViews": [
    {
      "buffer": 0,
      "byteLength": 102156,
      "byteOffset": 0,
      "name": "floatBufferViews",
      "target": 34963
    },
    {
      "buffer": 0,
      "byteLength": 107120,
      "byteOffset": 102156,
      "byteStride": 8,
      "name": "floatBufferViews",
      "target": 34962
    },
    {
      "buffer": 0,
      "byteLength": 321360,
      "byteOffset": 209276,
      "byteStride": 12,
      "name": "floatBufferViews",
      "target": 34962
    },
    {
      "buffer": 0,
      "byteLength": 1592,
      "byteOffset": 530636,
      "name": "floatBufferViews"
    },
    {
      "buffer": 0,
      "byteLength": 6368,
      "byteOffset": 532228,
      "byteStride": 16,
      "name": "floatBufferViews"
    }
  ],
  "buffers": [
    {
      "byteLength": 538596,
      "uri": "scene.bin"
    }
  ],
  "images": [
    {
      "uri": "textures/material_2_baseColor.png"
    }
  ],
  "materials": [
    {
      "doubleSided": true,
      "emissiveFactor": [
        0,
        0,
        0
      ],
      "name": "material",
      "pbrMetallicRoughness": {
        "baseColorFactor": [
          0.013965058094641672,
          0.013965058094641672,
          0.013965058094641672,
          1
        ],
        "metallicFactor": 1,
        "roughnessFactor": 0.4874728678871304
      }
    },
    {
      "doubleSided": true,
      "emissiveFactor": [
        0,
        0,
        0
      ],
      "name": "alum",
      "pbrMetallicRoughness": {
        "baseColorFactor": [
          1,
          1,
          1,
          1
        ],
        "metallicFactor": 1,
        "roughnessFactor": 0
      }
    },
    {
      "doubleSided": true,
      "emissiveFactor": [
        0,
        0,
        0
      ],
      "name": "material_2",
      "pbrMetallicRoughness": {
        "baseColorFactor": [
          1,
          1,
          1,
          1
        ],
        "baseColorTexture": {
          "index": 0,
          "texCoord": 0
        },
        "metallicFactor": 0,
        "roughnessFactor": 0
      }
    },
    {
      "doubleSided": true,
      "emissiveFactor": [
        0,
        0,
        0
      ],
      "name": "samsung",
      "pbrMetallicRoughness": {
        "baseColorFactor": [
          0.80000000000000004,
          0.80000000000000004,
          0.80000000000000004,
          1
        ],
        "metallicFactor": 1,
        "roughnessFactor": 0
      }
    },
    {
      "doubleSided": true,
      "emissiveFactor": [
        0,
        0,
        0
      ],
      "name": "flack",
      "pbrMetallicRoughness": {
        "baseColorFactor": [
          0.0090181700000000007,
          0.0090181700000000007,
          0.0090181700000000007,
          1
        ],
        "metallicFactor": 0,
        "roughnessFactor": 0.82394172574614266
      }
    },
    {
      "doubleSided": true,
      "emissiveFactor": [
        0,
        0,
        0
      ],
      "name": "material_5",
      "pbrMetallicRoughness": {
        "baseColorFactor": [
          0.030840542338959321,
          0.030840542338959321,
          0.030840542338959321,
          1
        ],
        "metallicFactor": 1,
        "roughnessFactor": 0.32939221027159482
      }
    },
    {
      "doubleSided": true,
      "emissiveFactor": [
        0,
        0,
        0
      ],
      "name": "buton",
      "pbrMetallicRoughness": {
        "baseColorFactor": [
          0.80000000000000004,
          0.80000000000000004,
          0.80000000000000004,
          1
        ],
        "metallicFactor": 0,
        "roughnessFactor": 0.82394172574614266
      }
    },
    {
      "doubleSided": true,
      "emissiveFactor": [
        0,
        0,
        0
      ],
      "name": "keys",
      "pbrMetallicRoughness": {
        "baseColorFactor": [
          0,
          0,
          0,
          1
        ],
        "metallicFactor": 0,
        "roughnessFactor": 0
      }
    }
  ],
  "meshes": [
    {
      "name": "lid_gun_0",
      "primitives": [
        {
          "attributes": {
            "NORMAL": 1,
            "POSITION": 0,
            "TEXCOORD_0": 2
          },
          "indices": 3,
          "material": 0,
          "mode": 4
        }
      ]
    },
    {
      "name": "lid_alum_0",
      "primitives": [
        {
          "attributes": {
            "NORMAL": 5,
            "POSITION": 4,
            "TEXCOORD_0": 6
          },
          "indices": 7,
          "material": 1,
          "mode": 4
        }
      ]
    },
    {
      "name": "lid_scr_0",
      "primitives": [
        {
          "attributes": {
            "NORMAL": 9,
            "POSITION": 8,
            "TEXCOORD_0": 10
          },
          "indices": 11,
          "material": 2,
          "mode": 4
        }
      ]
    },
    {
      "name": "lid_samsung_0",
      "primitives": [
        {
          "attributes": {
            "NORMAL": 13,
            "POSITION": 12,
            "TEXCOORD_0": 14
          },
          "indices": 15,
          "material": 3,
          "mode": 4
        }
      ]
    },
    {
      "name": "body_gun_0",
      "primitives": [
        {
          "attributes": {
            "NORMAL": 17,
            "POSITION": 16,
            "TEXCOORD_0": 18
          },
          "indices": 19,
          "material": 0,
          "mode": 4
        }
      ]
    },
    {
      "name": "body_alum_0",
      "primitives": [
        {
          "attributes": {
            "NORMAL": 21,
            "POSITION": 20,
            "TEXCOORD_0": 22
          },
          "indices": 23,
          "material": 1,
          "mode": 4
        }
      ]
    },
    {
      "name": "body_flack_0",
      "primitives": [
        {
          "attributes": {
            "NORMAL": 25,
            "POSITION": 24,
            "TEXCOORD_0": 26
          },
          "indices": 27,
          "material": 4,
          "mode": 4
        }
      ]
    },
    {
      "name": "body_tp_0",
      "primitives": [
        {
          "attributes": {
            "NORMAL": 29,
            "POSITION": 28,
            "TEXCOORD_0": 30
          },
          "indices": 31,
          "material": 5,
          "mode": 4
        }
      ]
    },
    {
      "name": "body_buton_0",
      "primitives": [
        {
          "attributes": {
            "NORMAL": 33,
            "POSITION": 32,
            "TEXCOORD_0": 34
          },
          "indices": 35,
          "material": 6,
          "mode": 4
        }
      ]
    },
    {
      "name": "body_keys_0",
      "primitives": [
        {
          "attributes": {
            "NORMAL": 37,
            "POSITION": 36,
            "TEXCOORD_0": 38
          },
          "indices": 39,
          "material": 7,
          "mode": 4
        }
      ]
    }
  ],
  "nodes": [
    {
      "children": [
        1
      ],
      "name": "RootNode (gltf orientation matrix)",
      "rotation": [
        -0.70710678118654746,
        -0,
        -0,
        0.70710678118654757
      ]
    },
    {
      "children": [
        2
      ],
      "name": "RootNode (model correction matrix)"
    },
    {
      "children": [
        3
      ],
      "matrix": [
        1,
        0,
        0,
        0,
        0,
        0,
        1,
        0,
        0,
        -1,
        0,
        0,
        0,
        0,
        0,
        1
      ],
      "name": "Samsung 9-Series.fbx"
    },
    {
      "children": [
        4
      ],
      "name": ""
    },
    {
      "children": [
        5,
        10
      ],
      "name": "RootNode"
    },
    {
      "children": [
        6,
        7,
        8,
        9
      ],
      "name": "lid",
      "rotation": [
        -0.7071068286895752,
        5.1717849834599902e-17,
        1.8624704704526385e-16,
        0.70710670948028564
      ],
      "scale": [
        100,
        100,
        100
      ],
      "translation": [
        5.1021969784434233e-15,
        2.3795435428619385,
        22.978250503540039
      ]
    },
    {
      "mesh": 0,
      "name": "lid_gun_0"
    },
    {
      "mesh": 1,
      "name": "lid_alum_0"
    },
    {
      "mesh": 2,
      "name": "lid_scr_0"
    },
    {
      "mesh": 3,
      "name": "lid_samsung_0"
    },
    {
      "children": [
        11,
        12,
        13,
        14,
        15,
        16
      ],
      "name": "body",
      "rotation": [
        -0.7071068286895752,
        0,
        0,
        0.70710670948028564
      ],
      "scale": [
        100,
        100,
        100
      ],
      "translation": [
        0,
        1.7169979810714722,
        -25.789516448974609
      ]
    },
    {
      "mesh": 4,
      "name": "body_gun_0"
    },
    {
      "mesh": 5,
      "name": "body_alum_0"
    },
    {
      "mesh": 6,
      "name": "body_flack_0"
    },
    {
      "mesh": 7,
      "name": "body_tp_0"
    },
    {
      "mesh": 8,
      "name": "body_buton_0"
    },
    {
      "mesh": 9,
      "name": "body_keys_0"
    }
  ],
  "samplers": [
    {
      "magFilter": 9729,
      "minFilter": 9987,
      "wrapS": 10497,
      "wrapT": 10497
    }
  ],
  "scene": 0,
  "scenes": [
    {
      "name": "OSG_Scene",
      "nodes": [
        0
      ]
    }
  ],
  "textures": [
    {
      "sampler": 0,
      "source": 0
    }
  ]
}

