{
    "asset" : {
        "generator" : "Khronos glTF Blender I/O v1.6.16",
        "version" : "2.0"
    },
    "scene" : 0,
    "scenes" : [
        {
            "name" : "Scene",
            "nodes" : [
                0,
                1,
                2
            ]
        }
    ],
    "nodes" : [
        {
            "name" : "Camera",
            "rotation" : [
                0.13051903247833252,
                0.010382686741650105,
                -0.0013668632600456476,
                0.9913904666900635
            ],
            "translation" : [
                0,
                40,
                10
            ]
        },
        {
            "mesh" : 0,
            "name" : "BezierCircle.001",
            "scale" : [
                1.0523343086242676,
                1.0523343086242676,
                1.0523343086242676
            ]
        },
        {
            "name" : "Sun",
            "translation" : [
                -0.005238175392150879,
                8.436546325683594,
                -0.013930320739746094
            ]
        }
    ],
    "materials" : [
        {
            "doubleSided" : true,
            "name" : "Material.002",
            "pbrMetallicRoughness" : {
                "baseColorTexture" : {
                    "index" : 0
                },
                "metallicFactor" : 0,
                "roughnessFactor" : 0.5
            }
        }
    ],
    "meshes" : [
        {
            "name" : "BezierCircle.002",
            "primitives" : [
                {
                    "attributes" : {
                        "POSITION" : 0,
                        "NORMAL" : 1,
                        "TEXCOORD_0" : 2
                    },
                    "indices" : 3,
                    "material" : 0
                }
            ]
        }
    ],
    "textures" : [
        {
            "sampler" : 0,
            "source" : 0
        }
    ],
    "images" : [
        {
            "bufferView" : 4,
            "mimeType" : "image/jpeg",
            "name" : "Pure-White_Perfect-White"
        }
    ],
    "accessors" : [
        {
            "bufferView" : 0,
            "componentType" : 5126,
            "count" : 2330,
            "max" : [
                3.083826780319214,
                0.5531696081161499,
                3.083826780319214
            ],
            "min" : [
                -3.083826780319214,
                0,
                -3.083826780319214
            ],
            "type" : "VEC3"
        },
        {
            "bufferView" : 1,
            "componentType" : 5126,
            "count" : 2330,
            "type" : "VEC3"
        },
        {
            "bufferView" : 2,
            "componentType" : 5126,
            "count" : 2330,
            "type" : "VEC2"
        },
        {
            "bufferView" : 3,
            "componentType" : 5123,
            "count" : 4047,
            "type" : "SCALAR"
        }
    ],
    "bufferViews" : [
        {
            "buffer" : 0,
            "byteLength" : 27960,
            "byteOffset" : 0
        },
        {
            "buffer" : 0,
            "byteLength" : 27960,
            "byteOffset" : 27960
        },
        {
            "buffer" : 0,
            "byteLength" : 18640,
            "byteOffset" : 55920
        },
        {
            "buffer" : 0,
            "byteLength" : 8094,
            "byteOffset" : 74560
        },
        {
            "buffer" : 0,
            "byteLength" : 20662,
            "byteOffset" : 82656
        }
    ],
    "samplers" : [
        {
            "magFilter" : 9729,
            "minFilter" : 9987
        }
    ],
    "buffers" : [
        {
            "byteLength" : 103320,
            "uri" : "data:application/octet-stream;base64,"
        }
    ]
}
